
<svg xmlns="http://www.w3.org/2000/svg" viewBox="192.41 333.91 639.19 100.18">
    <g style="font-style:normal;font-weight:700;font-size:72px;line-height:1;font-family:'Brandmark1 Bold Color';font-variant-ligatures:normal;text-align:center;text-anchor:middle">
        <path class="c1" d="m192.406 425.222 13.987-13.988a10.208 10.208 0 0 0 7.258 3.013c5.659 0 10.27-4.613 10.27-10.27V341.35l19.784-6.3v68.928c0 8.026-3.125 15.574-8.809 21.245-5.682 5.67-13.218 8.808-21.245 8.808-8.026 0-15.575-3.126-21.245-8.808z" fill="#f05a23" aria-label="J"/>
        <path class="c1" d="M283.266 429.936a49.59 49.59 0 0 1-15.802-10.648 49.6 49.6 0 0 1-10.648-15.802c-2.596-6.137-3.906-12.652-3.906-19.355s1.31-13.22 3.906-19.355a49.59 49.59 0 0 1 10.648-15.802 49.59 49.59 0 0 1 15.802-10.648c6.137-2.596 12.652-3.907 19.354-3.907 6.705 0 13.22 1.31 19.356 3.907a49.578 49.578 0 0 1 15.802 10.648 49.551 49.551 0 0 1 10.648 15.802c2.596 6.136 3.907 12.651 3.907 19.355s-1.31 13.218-3.907 19.355a49.56 49.56 0 0 1-10.648 15.802 49.577 49.577 0 0 1-15.802 10.648c-6.137 2.596-12.651 3.906-19.356 3.906-6.702 0-13.217-1.31-19.354-3.906zm-1.815-66.962c-5.658 5.657-8.77 13.167-8.77 21.17 0 8.001 3.112 15.511 8.77 21.169 5.659 5.658 13.168 8.77 21.17 8.77 8.003 0 15.512-3.112 21.17-8.77 5.657-5.658 8.77-13.168 8.77-21.17 0-8.002-3.113-15.512-8.77-21.17-5.658-5.657-13.181-8.77-21.17-8.77-7.988 0-15.511 3.113-21.17 8.77z" fill="#f05a23" aria-label="O"/>
        <path class="c1" d="M361.171 335.049h33.646c9.94 0 17.842 2.016 23.488 5.986 3.175 2.23 5.62 5.078 7.27 8.455 1.663 3.414 2.507 7.372 2.507 11.769 0 5.356-1.45 10.396-4.195 14.605a23.986 23.986 0 0 1-4.475 5.103 25.937 25.937 0 0 1 6.578 5.305c4.247 4.8 6.503 11.14 6.503 18.334 0 8.583-3.049 15.778-8.834 20.83-6.022 5.243-14.58 7.902-25.441 7.902H361.17v-98.289zm43.423 36.127c2.319-1.65 3.454-4.196 3.454-7.775 0-4.561-2.131-6.275-2.824-6.83-2.33-1.877-6.313-2.873-11.516-2.873l-12.754.088v19.822h13.988c4.082 0 7.422-.844 9.652-2.432zm4.083 40.512c2.382-1.763 3.529-4.371 3.529-7.963 0-3.717-1.185-6.452-3.642-8.38-2.786-2.18-7.272-3.339-12.992-3.339h-14.618v22.557h16.255c4.979 0 8.935-.996 11.468-2.875z" fill="#f05a23" aria-label="B"/>
        <path class="c1" d="m436.503 418.833-2.66-2.848 13.018-15.574 3.363 4.22a28.04 28.04 0 0 0 9.931 7.826c3.628 1.714 7.547 2.608 11.327 2.608 4.462 0 8.267-.982 10.712-2.759 2.205-1.6 3.276-3.743 3.276-6.565 0-3.075-.945-4.977-3.351-6.78-2.774-2.067-7.26-3.755-12.464-5.72-.44-.164-.893-.34-1.36-.517-7.145-2.659-14.012-5.393-19.52-9.778-3.2-2.546-5.569-5.356-7.245-8.582-1.865-3.579-2.81-7.649-2.81-12.097 0-7.75 3.352-14.92 9.426-20.187 5.898-5.103 13.822-7.913 22.33-7.913 10.987 0 21.71 3.956 30.997 11.429l3.353 2.71-12.086 15.726-3.527-2.899c-6.212-5.129-13.043-8.065-18.737-8.065-5.293 0-11.493 2.294-11.594 8.758-.038 2.886 1.348 4.46 3.452 5.935 3.013 2.117 7.8 3.944 12.867 5.884l.05.013c.794.315 1.587.63 2.382.932 7.17 2.81 13.949 5.457 19.09 9.691 6.073 5.015 9.035 11.618 9.035 20.2 0 4.65-.995 8.972-2.962 12.852-1.853 3.63-4.498 6.793-7.9 9.401-6.2 4.737-14.554 7.359-23.538 7.359-13.283 0-25.657-5.417-34.855-15.26z" fill="#f05a23" aria-label="S"/>
        <path class="c1" d="M540.93 430.15a49.92 49.92 0 0 1-15.914-10.736 50.097 50.097 0 0 1-10.736-15.916c-2.609-6.174-3.945-12.74-3.945-19.494s1.323-13.318 3.945-19.493a49.897 49.897 0 0 1 10.736-15.916 50.117 50.117 0 0 1 15.915-10.736c6.175-2.62 12.74-3.944 19.493-3.944 16.734 0 32.296 8.305 41.634 22.229l-16.432 11.013a30.28 30.28 0 0 0-25.202-13.458c-8.089 0-15.7 3.15-21.434 8.871s-8.871 13.345-8.871 21.435c0 8.09 3.15 15.7 8.871 21.434 5.72 5.722 13.332 8.87 21.434 8.87 10.081 0 19.482-5 25.14-13.368l16.393 11.075a50.058 50.058 0 0 1-41.533 22.078c-6.754 0-13.318-1.323-19.493-3.944z" fill="#f05a23" aria-label="C"/>
        <g aria-label="A">
            <path class="c1" fill="#f05a23" d="M649.873 335.049h-17.049l-37.236 98.289h20.943l24.787-68.135 25 68.135h20.943z"/>
            <path class="c3" fill="#f48359" d="m641.491 433.338-15.644-24.22h31.155z"/>
        </g>
        <path class="c1" d="M752.171 344.298c-5.947-6.137-14.63-9.249-25.819-9.249h-35.661v98.288h19.783v-79.512h14.743c4.878 0 8.783 1.158 11.278 3.364 2.471 2.155 3.719 5.444 3.719 9.74 0 4.16-1.21 7.385-3.593 9.59-2.797 2.583-7.22 3.894-13.167 3.894h-3.323v18.775h4.33c5.116 0 9.841-.617 14.025-1.827 4.462-1.298 8.33-3.276 11.518-5.885 3.364-2.759 5.96-6.212 7.711-10.269 1.766-4.096 2.66-8.808 2.66-14.026 0-9.425-2.836-17.338-8.204-22.883z" fill="#f05a23" aria-label="P"/>
        <path class="c1" d="M767.964 433.338H831.6v-18.4h-63.635v18.4zm0-39.568H831.6v-18.776h-63.635v18.776zm0-58.721v18.776H831.6v-18.776h-63.635z" fill="#f05a23" aria-label="E"/>
    </g>
</svg>
